#!OML:ASF H:\LiuWeirdWalks\Patient Classification 1\Patient 1\Session 1\male.ASF
:FULLY-SPECIFIED
:DEGREES
409
root -0.352465 17.9256 -27.5414 6.23629 0.706031 6.15137
lowerback 11.8197 0.56604 11.9334
upperback -0.227338 3.11166 9.95656
thorax -6.91101 1.28887 3.47374
lowerneck -8.99344 -1.94074 8.81205
upperneck 11.7186 -0.809558 -25.2601
head 4.79804 -1.60051 -9.83656
rclavicle -4.77083e-015 1.27222e-014
rhumerus -29.2889 -26.0377 -14.8408
rradius 29.8739
rwrist -0.768029
rhand -22.3372 -0.63347
rfingers 7.12502
rthumb 4.08315 -30.5741
lclavicle -4.77083e-015 1.27222e-014
lhumerus -19.6564 16.3727 23.3142
lradius 33.0271
lwrist 11.9787
lhand -15.0965 -1.89174
lfingers 7.12502
lthumb 11.0717 27.7962
rfemur -6.81889 2.41903 11.9056
rtibia 30.4585
rfoot -16.7287 -29.4336
rtoes -3.73173
lfemur -26.5921 6.60835 -21.9186
ltibia 35.0957
lfoot -8.39833 12.095
ltoes -16.6568
410
root -0.340696 17.9255 -27.5034 6.25635 0.727505 5.92856
lowerback 11.8903 0.524533 11.903
upperback -0.213417 3.06308 9.93672
thorax -6.93733 1.26535 3.4762
lowerneck -8.84274 -1.92465 8.71613
upperneck 11.5867 -0.81272 -25.0777
head 4.73274 -1.58014 -9.73934
rclavicle 2.46493e-014 5.725e-014
rhumerus -29.1326 -25.9979 -14.535
rradius 30.0958
rwrist -0.959537
rhand -22.3925 -0.675032
rfingers 7.12502
rthumb 4.0298 -30.6167
lclavicle 2.46493e-014 5.725e-014
lhumerus -19.7985 16.3705 23.3066
lradius 33.0914
lwrist 11.9794
lhand -15.0716 -1.94337
lfingers 7.12502
lthumb 11.0957 27.7433
rfemur -6.621 2.35835 12.116
rtibia 30.2701
rfoot -16.5972 -29.402
rtoes -3.88002
lfemur -26.8924 6.53927 -21.7054
ltibia 34.643
lfoot -8.08531 11.7268
ltoes -16.8248
411
root -0.328162 17.925 -27.4644 6.28661 0.760171 5.71313
lowerback 11.9463 0.473369 11.8602
upperback -0.200277 2.99681 9.90982
thorax -6.95657 1.23384 3.48081
lowerneck -8.70975 -1.89083 8.64433
upperneck 11.4425 -0.793458 -24.9245
head 4.67105 -1.54992 -9.65709
rclavicle -1.82882e-014 -1.27222e-014
rhumerus -28.9375 -26.0246 -14.221
rradius 30.3126
rwrist -1.09549
rhand -22.4153 -0.708211
rfingers 7.12502
rthumb 4.00777 -30.6503
lclavicle -1.82882e-014 -1.27222e-014
lhumerus -19.9388 16.4375 23.2818
lradius 33.147
lwrist 11.9156
lhand -15.1288 -1.94981
lfingers 7.12502
lthumb 11.0405 27.7398
rfemur -6.42792 2.28513 12.3119
rtibia 30.0829
rfoot -16.4685 -29.3531
rtoes -4.04129
lfemur -27.2015 6.43366 -21.4984
ltibia 34.2091
lfoot -7.84672 11.3506
ltoes -17.0083
412
root -0.314761 17.9239 -27.4241 6.32785 0.806305 5.5008
lowerback 11.9719 0.411976 11.8177
upperback -0.182976 2.90974 9.87363
thorax -6.95363 1.19291 3.47874
lowerneck -8.59779 -1.85411 8.55187
upperneck 11.3045 -0.767811 -24.7596
head 4.61665 -1.51852 -9.56784
rclavicle 1.90833e-014 -9.54166e-015
rhumerus -28.7313 -26.0007 -13.9135
rradius 30.5692
rwrist -1.32993
rhand -22.4294 -0.749471
rfingers 7.12502
rthumb 3.99411 -30.6918
lclavicle 1.90833e-014 -9.54166e-015
lhumerus -20.0734 16.564 23.2414
lradius 33.2018
lwrist 11.8221
lhand -15.2116 -1.95851
lfingers 7.12502
lthumb 10.9606 27.7354
rfemur -6.23712 2.20019 12.4986
rtibia 29.8939
rfoot -16.3181 -29.2912
rtoes -4.24387
lfemur -27.5135 6.294 -21.2903
ltibia 33.7796
lfoot -7.68109 10.9531
ltoes -17.1615
413
root -0.300732 17.9231 -27.3826 6.37579 0.851208 5.27194
lowerback 11.9921 0.348415 11.7911
upperback -0.169657 2.82101 9.83066
thorax -6.9509 1.15035 3.46107
lowerneck -8.50959 -1.79973 8.47881
upperneck 11.1846 -0.715743 -24.6046
head 4.5765 -1.47618 -9.48689
rclavicle -8.74653e-015 -1.30403e-013
rhumerus -28.5257 -25.9572 -13.6011
rradius 30.8466
rwrist -1.62708
rhand -22.4584 -0.805932
rfingers 7.12502
rthumb 3.96611 -30.7488
lclavicle -8.74653e-015 -1.30403e-013
lhumerus -20.19 16.7123 23.2016
lradius 33.2617
lwrist 11.7356
lhand -15.3764 -1.87964
lfingers 7.12502
lthumb 10.8017 27.8226
rfemur -6.04443 2.12803 12.6998
rtibia 29.6961
rfoot -16.1626 -29.2168
rtoes -4.45068
lfemur -27.8215 6.13968 -21.0577
ltibia 33.3413
lfoot -7.58216 10.5412
ltoes -17.3113
414
root -0.285913 17.9224 -27.3401 6.42983 0.898578 5.02606
lowerback 12.0092 0.275003 11.7712
upperback -0.148755 2.71875 9.79243
thorax -6.93849 1.10155 3.44722
lowerneck -8.46976 -1.70978 8.44778
upperneck 11.0629 -0.615508 -24.4936
head 4.55289 -1.41364 -9.42964
rclavicle -1.90833e-014 4.45278e-014
rhumerus -28.2919 -25.8674 -13.2947
rradius 31.152
rwrist -2.00661
rhand -22.5053 -0.891397
rfingers 7.12502
rthumb 3.92079 -30.8351
lclavicle -1.90833e-014 4.45278e-014
lhumerus -20.3114 16.9391 23.1582
lradius 33.3261
lwrist 11.6838
lhand -15.5159 -1.83672
lfingers 7.12502
lthumb 10.6671 27.8725
rfemur -5.84857 2.05468 12.9154
rtibia 29.4864
rfoot -15.9865 -29.131
rtoes -4.68277
lfemur -28.1237 5.9673 -20.7985
ltibia 32.8805
lfoot -7.52078 10.1199
ltoes -17.4607
415
root -0.271007 17.9226 -27.2969 6.48385 0.950162 4.75194
lowerback 12.044 0.202961 11.7666
upperback -0.137494 2.62543 9.75448
thorax -6.94617 1.05567 3.42417
lowerneck -8.4429 -1.59843 8.47213
upperneck 10.9575 -0.485767 -24.4183
head 4.5409 -1.33774 -9.39584
rclavicle 6.36111e-015 -4.77083e-014
rhumerus -28.0847 -25.7335 -12.9682
rradius 31.4781
rwrist -2.4525
rhand -22.5883 -1.00684
rfingers 7.12502
rthumb 3.84067 -30.952
lclavicle 6.36111e-015 -4.77083e-014
lhumerus -20.4016 17.195 23.1272
lradius 33.3958
lwrist 11.7163
lhand -15.5883 -1.84274
lfingers 7.12502
lthumb 10.5973 27.8701
rfemur -5.64187 1.99385 13.1647
rtibia 29.2628
rfoot -15.8095 -29.047
rtoes -4.91414
lfemur -28.4132 5.79602 -20.4986
ltibia 32.385
lfoot -7.48768 9.70279
ltoes -17.6304
416
root -0.2559 17.9237 -27.2534 6.54617 1.00138 4.46748
lowerback 12.0862 0.122593 11.7474
upperback -0.1337 2.52228 9.72425
thorax -6.96756 1.00517 3.41976
lowerneck -8.405 -1.45264 8.53632
upperneck 10.8209 -0.313596 -24.3807
head 4.52502 -1.23923 -9.3798
rclavicle 6.36111e-015 -4.13472e-014
rhumerus -27.8319 -25.5979 -12.648
rradius 31.7922
rwrist -2.8887
rhand -22.7081 -1.15253
rfingers 7.12502
rthumb 3.72497 -31.0997
lclavicle 6.36111e-015 -4.13472e-014
lhumerus -20.5277 17.4376 23.0992
lradius 33.4794
lwrist 11.6809
lhand -15.6747 -1.87707
lfingers 7.12502
lthumb 10.5139 27.84
rfemur -5.44031 1.93915 13.4257
rtibia 29.031
rfoot -15.6332 -28.961
rtoes -5.14025
lfemur -28.6937 5.62428 -20.1812
ltibia 31.8438
lfoot -7.47985 9.33417
ltoes -17.8211
417
root -0.240605 17.9254 -27.2099 6.62084 1.05341 4.19753
lowerback 12.1472 0.0491317 11.6978
upperback -0.146937 2.42952 9.68358
thorax -7.01879 0.959306 3.41925
lowerneck -8.40273 -1.3001 8.61616
upperneck 10.7307 -0.126478 -24.3426
head 4.53185 -1.13709 -9.36884
rclavicle 0 1.27222e-014
rhumerus -27.5923 -25.5131 -12.2996
rradius 32.0784
rwrist -3.23731
rhand -22.8376 -1.29997
rfingers 7.12502
rthumb 3.59992 -31.2493
lclavicle 0 1.27222e-014
lhumerus -20.6293 17.6194 23.1027
lradius 33.5729
lwrist 11.5365
lhand -15.8582 -1.81379
lfingers 7.12502
lthumb 10.3369 27.9122
rfemur -5.2511 1.87347 13.6692
rtibia 28.7925
rfoot -15.4389 -28.8723
rtoes -5.40097
lfemur -28.9695 5.44084 -19.8739
ltibia 31.2527
lfoot -7.46485 9.05438
ltoes -18.055
418
root -0.225176 17.9274 -27.1663 6.70538 1.10178 3.93969
lowerback 12.2074 -0.0243039 11.6029
upperback -0.174453 2.33242 9.64384
thorax -7.08684 0.912287 3.44594
lowerneck -8.34801 -1.17026 8.61626
upperneck 10.6262 0.0308813 -24.239
head 4.52 -1.04569 -9.31818
rclavicle -1.90833e-014 -1.94014e-013
rhumerus -27.3298 -25.4499 -11.9422
rradius 32.3322
rwrist -3.48633
rhand -22.9476 -1.43309
rfingers 7.12502
rthumb 3.49372 -31.3842
lclavicle -1.90833e-014 -1.94014e-013
lhumerus -20.7476 17.7559 23.1192
lradius 33.6693
lwrist 11.3629
lhand -16.0697 -1.75438
lfingers 7.12502
lthumb 10.1329 27.9816
rfemur -5.07191 1.80457 13.8969
rtibia 28.5522
rfoot -15.2477 -28.7736
rtoes -5.66555
lfemur -29.2374 5.25416 -19.5751
ltibia 30.6144
lfoot -7.43699 8.90112
ltoes -18.2849
419
root -0.208895 17.9301 -27.1218 6.79857 1.13178 3.70499
lowerback 12.2784 -0.0917202 11.4669
upperback -0.208067 2.2392 9.59286
thorax -7.16823 0.867932 3.48254
lowerneck -8.29561 -1.04513 8.59583
upperneck 10.5217 0.181435 -24.1103
head 4.50726 -0.957395 -9.25501
rclavicle 0 -1.04958e-013
rhumerus -27.0381 -25.4894 -11.587
rradius 32.538
rwrist -3.61373
rhand -23.0574 -1.5614
rfingers 7.12502
rthumb 3.38764 -31.5142
lclavicle 0 -1.04958e-013
lhumerus -20.8501 17.841 23.1654
lradius 33.7688
lwrist 11.0962
lhand -16.4537 -1.50301
lfingers 7.12502
lthumb 9.76244 28.2507
rfemur -4.90232 1.72604 14.0879
rtibia 28.3078
rfoot -15.0379 -28.6498
rtoes -5.96872
lfemur -29.4916 5.078 -19.3037
ltibia 29.9407
lfoot -7.38107 8.90436
ltoes -18.4943
420
root -0.191523 17.9329 -27.076 6.89891 1.14887 3.48925
lowerback 12.3311 -0.160127 11.2969
upperback -0.227673 2.13318 9.53532
thorax -7.2243 0.819618 3.53252
lowerneck -8.28903 -0.919677 8.5331
upperneck 10.4449 0.337793 -23.9465
head 4.51198 -0.870274 -9.1732
rclavicle -3.57812e-014 4.13472e-014
rhumerus -26.7107 -25.5462 -11.257
rradius 32.7307
rwrist -3.71633
rhand -23.1408 -1.66083
rfingers 7.12502
rthumb 3.30715 -31.6149
lclavicle -3.57812e-014 4.13472e-014
lhumerus -20.9463 17.9296 23.2228
lradius 33.8607
lwrist 10.8279
lhand -16.8358 -1.24295
lfingers 7.12502
lthumb 9.39376 28.5277
rfemur -4.73667 1.62098 14.2437
rtibia 28.0555
rfoot -14.7941 -28.4899
rtoes -6.33377
lfemur -29.7353 4.91603 -19.0588
ltibia 29.2455
lfoot -7.28063 9.07199
ltoes -18.5985
421
root -0.173651 17.9362 -27.0292 7.00187 1.15308 3.26094
lowerback 12.3751 -0.219789 11.1256
upperback -0.254807 2.03666 9.46562
thorax -7.28255 0.775539 3.56851
lowerneck -8.21427 -0.8453 8.371
upperneck 10.3487 0.420561 -23.668
head 4.48497 -0.812449 -9.03272
rclavicle 1.82882e-014 5.40694e-014
rhumerus -26.4223 -25.5645 -10.9349
rradius 32.9288
rwrist -3.82964
rhand -23.2149 -1.75202
rfingers 7.12502
rthumb 3.23557 -31.7072
lclavicle 1.82882e-014 5.40694e-014
lhumerus -20.9969 17.9894 23.2893
lradius 33.9255
lwrist 10.6012
lhand -17.1606 -1.05095
lfingers 7.12502
lthumb 9.08037 28.7336
rfemur -4.56881 1.50896 14.4038
rtibia 27.7908
rfoot -14.5342 -28.2973
rtoes -6.72148
lfemur -29.9738 4.79134 -18.8081
ltibia 28.5456
lfoot -7.09811 9.39013
ltoes -18.6774
